<svg width="130" height="148" viewBox="0 0 130 148" fill="none" xmlns="http://www.w3.org/2000/svg">
<g id="Union" filter="url(#filter0_d_149_2227)">
<path d="M57.3115 46.2681C57.3115 44.4221 59.4493 43.3991 60.8867 44.5571L104.83 79.9624C106.444 81.2632 105.524 83.8706 103.451 83.8706H78.2178C77.4942 83.8706 76.8171 84.2265 76.4072 84.8228L61.3193 106.769C60.0968 108.547 57.3115 107.682 57.3115 105.524V46.2681ZM45.8643 54.8179C46.8295 53.8528 48.3941 53.8528 49.3594 54.8179C50.3247 55.7832 50.3247 57.3486 49.3594 58.314L37.3984 70.2749L37.2109 70.4438C36.2402 71.2357 34.8084 71.1796 33.9033 70.2749C32.9381 69.3096 32.9381 67.7441 33.9033 66.7788L45.8643 54.8179ZM43.6162 42.5767C44.8625 42.7034 45.835 43.7559 45.835 45.0356C45.8348 46.3153 44.8624 47.3679 43.6162 47.4946L43.3633 47.5073H26.4717C25.1067 47.5072 24.0002 46.4006 24 45.0356C24 43.6705 25.1066 42.5631 26.4717 42.563H43.3633L43.6162 42.5767ZM91.8994 42.5767C93.146 42.7032 94.1191 43.7557 94.1191 45.0356C94.119 46.3154 93.1459 47.3682 91.8994 47.4946L91.6465 47.5073H74.7559C73.3909 47.5072 72.2834 46.4006 72.2832 45.0356C72.2832 43.6705 73.3908 42.5631 74.7559 42.563H91.6465L91.8994 42.5767ZM49.3594 31.7573C50.3246 32.7227 50.3247 34.2871 49.3594 35.2524C48.3941 36.2176 46.8295 36.2176 45.8643 35.2524L49.3594 31.7573ZM72.2549 35.2524C71.2895 36.2176 69.7241 36.2177 68.7588 35.2524C67.7939 34.2872 67.794 32.7226 68.7588 31.7573L72.2549 35.2524ZM33.9033 19.7954C34.8084 18.8908 36.2402 18.8347 37.2109 19.6265L37.3984 19.7954L49.3594 31.7573L47.6113 33.5044L45.8643 35.2524L33.9033 23.2915L33.7334 23.104C32.9415 22.1332 32.9984 20.7004 33.9033 19.7954ZM80.7197 19.7954C81.685 18.8303 83.2505 18.8304 84.2158 19.7954C85.1811 20.7607 85.1811 22.3262 84.2158 23.2915L72.2549 35.2524L70.5068 33.5044L68.7588 31.7573L80.7197 19.7954ZM58.9395 8.2749C60.3046 8.2749 61.4121 9.38139 61.4121 10.7466V30.7739C61.4119 32.139 60.3045 33.2456 58.9395 33.2456C57.5746 33.2453 56.4679 32.1388 56.4678 30.7739V10.7466C56.4678 9.38157 57.5745 8.27519 58.9395 8.2749Z" fill="white"/>
</g>
<defs>
<filter id="filter0_d_149_2227" x="0.499486" y="0.760205" width="128.654" height="146.452" filterUnits="userSpaceOnUse" color-interpolation-filters="sRGB">
<feFlood flood-opacity="0" result="BackgroundImageFix"/>
<feColorMatrix in="SourceAlpha" type="matrix" values="0 0 0 0 0 0 0 0 0 0 0 0 0 0 0 0 0 0 127 0" result="hardAlpha"/>
<feMorphology radius="10.6572" operator="erode" in="SourceAlpha" result="effect1_dropShadow_149_2227"/>
<feOffset dy="15.9858"/>
<feGaussianBlur stdDeviation="17.0789"/>
<feComposite in2="hardAlpha" operator="out"/>
<feColorMatrix type="matrix" values="0 0 0 0 1 0 0 0 0 1 0 0 0 0 1 0 0 0 0.5 0"/>
<feBlend mode="normal" in2="BackgroundImageFix" result="effect1_dropShadow_149_2227"/>
<feBlend mode="normal" in="SourceGraphic" in2="effect1_dropShadow_149_2227" result="shape"/>
</filter>
</defs>
</svg>
